<?xml version="1.0" encoding="UTF-8"?>
<!DOCTYPE svg PUBLIC "-//W3C//DTD SVG 1.1//EN" "http://www.w3.org/Graphics/SVG/1.1/DTD/svg11.dtd">
<svg xmlns="http://www.w3.org/2000/svg"
	style="background-color: rgb(255, 255, 255);"
	xmlns:xlink="http://www.w3.org/1999/xlink" version="1.1" width="1030px"
	height="365px" viewBox="-0.5 -0.5 1030 365">
	<g>
		<path d="M 626 357 L 626 52"
			fill="none" stroke="#000000" stroke-miterlimit="10"
			 />
		<rect x="271.72" y="68.8"
			width="200.26" height="101.2" fill="#7acff5" stroke="#000000"
			 />
		<path
			d="M 271.72 100.8 L 471.98 100.8" fill="none" stroke="#000000"
			stroke-miterlimit="10"  />
		<g fill="#000000"
			font-family="sans-serif" font-weight="bold" text-anchor="middle"
			font-size="12px">
			<text x="371.35" y="80.3">&lt;&lt;manager&gt;&gt;</text>
			<text x="371.35" y="94.3">Remoshock</text>
		</g>
		<rect x="560" y="0"
			width="132.57" height="40" fill="#7acff5" stroke="#000000"
			 />
		<path d="M 560 18 L 692.57 18"
			fill="none" stroke="#000000" stroke-miterlimit="10"
			 />
		<g fill="#000000"
			font-family="sans-serif" font-weight="bold" text-anchor="middle"
			font-size="12px">
			<text x="625.79" y="11.5">Receiver</text>
		</g>
		<rect x="633.04" y="257"
			width="132.6" height="40" fill="#7acff5" stroke="#000000"
			 />
		<path
			d="M 633.04 275 L 765.64 275" fill="none" stroke="#000000"
			stroke-miterlimit="10"  />
		<g fill="#000000"
			font-family="sans-serif" font-weight="bold" text-anchor="middle"
			font-size="12px">
			<text x="698.84" y="268.5">Patpet</text>
		</g>
		<rect x="633.04" y="193"
			width="132.6" height="40" fill="#7acff5" stroke="#000000"
			 />
		<path
			d="M 633.04 211 L 765.64 211" fill="none" stroke="#000000"
			stroke-miterlimit="10"  />
		<g fill="#000000"
			font-family="sans-serif" font-weight="bold" text-anchor="middle"
			font-size="12px">
			<text x="698.84" y="204.5">Wodondog</text>
		</g>
		<rect x="633.04" y="129"
			width="132.6" height="40" fill="#7acff5" stroke="#000000"
			 />
		<path
			d="M 633.04 147 L 765.64 147" fill="none" stroke="#000000"
			stroke-miterlimit="10"  />
		<g fill="#000000"
			font-family="sans-serif" font-weight="bold" text-anchor="middle"
			font-size="12px">
			<text x="698.84" y="140.5">Petrainer</text>
		</g>
		<rect x="58" y="34"
			width="132.58" height="40" fill="#7acff5" stroke="#000000"
			 />
		<path d="M 58 52 L 190.58 52"
			fill="none" stroke="#000000" stroke-miterlimit="10"
			 />
		<g fill="#000000"
			font-family="sans-serif" font-weight="bold" text-anchor="middle"
			font-size="12px">
			<text x="123.79" y="45.5">remoshockcli</text>
		</g>
		<rect x="633.05" y="63"
			width="132.59" height="40" fill="#7acff5" stroke="#000000"
			 />
		<path
			d="M 633.05 81 L 765.64 81" fill="none" stroke="#000000"
			stroke-miterlimit="10"  />
		<g fill="#000000"
			font-family="sans-serif" font-weight="bold" text-anchor="middle"
			font-size="12px">
			<text x="698.84" y="74.5">PAC</text>
		</g>
		<path
			d="M 626.29 41.12 L 632.29 53.12 L 620.29 53.12 Z" fill="none"
			stroke="#000000" stroke-miterlimit="10"  />
		<rect x="58" y="97"
			width="132.58" height="40" fill="#7acff5" stroke="#000000"
			 />
		<path d="M 58 115 L 190.58 115"
			fill="none" stroke="#000000" stroke-miterlimit="10"
			 />
		<g fill="#000000"
			font-family="sans-serif" font-weight="bold" text-anchor="middle"
			font-size="12px">
			<text x="123.79" y="108.5">remoshockrnd</text>
		</g>
		<rect x="58" y="160"
			width="132.58" height="40" fill="#7acff5" stroke="#000000"
			 />
		<path d="M 58 178 L 190.58 178"
			fill="none" stroke="#000000" stroke-miterlimit="10"
			 />
		<g fill="#000000"
			font-family="sans-serif" font-weight="bold" text-anchor="middle"
			font-size="12px">
			<text x="123.79" y="171.5">remoshockserver</text>
		</g>
		<path
			d="M 190.58 117.64 L 265.35 118.37" fill="none" stroke="#000000"
			stroke-miterlimit="10"  />
		<path
			d="M 270.6 118.42 L 263.57 121.85 L 265.35 118.37 L 263.63 114.85 Z"
			fill="#000000" stroke="#000000" stroke-miterlimit="10"
			 />
		<path
			d="M 191 54 L 266.29 91.18" fill="none" stroke="#000000"
			stroke-miterlimit="10"  />
		<path
			d="M 271 93.5 L 263.17 93.54 L 266.29 91.18 L 266.27 87.27 Z"
			fill="#000000" stroke="#000000" stroke-miterlimit="10"
			 />
		<path
			d="M 191 180 L 266.15 147.53" fill="none" stroke="#000000"
			stroke-miterlimit="10"  />
		<path
			d="M 270.97 145.44 L 265.94 151.43 L 266.15 147.53 L 263.16 145.01 Z"
			fill="#000000" stroke="#000000" stroke-miterlimit="10"
			 />
		<path
			d="M 473 112 L 555.62 24.63" fill="none" stroke="#000000"
			stroke-miterlimit="10"  />
		<path
			d="M 559.23 20.81 L 556.97 28.3 L 555.62 24.63 L 551.88 23.49 Z"
			fill="#000000" stroke="#000000" stroke-miterlimit="10"
			 />
		<rect x="657.27" y="310"
			width="59.21" height="32" fill="none" stroke="none"
			 />
		<g fill="#000000"
			font-family="sans-serif" font-weight="bold" text-anchor="middle"
			font-size="12px">
			<text x="695.62" y="338">...</text>
		</g>
		<rect x="823.99" y="0"
			width="132.59" height="40" fill="#7acff5" stroke="#000000"
			 />
		<path
			d="M 823.99 18 L 956.58 18" fill="none" stroke="#000000"
			stroke-miterlimit="10"  />
		<g fill="#000000"
			font-family="sans-serif" font-weight="bold" text-anchor="middle"
			font-size="12px">
			<text x="889.78" y="11.5">SdrSender</text>
		</g>
		<rect x="897" y="129"
			width="132.59" height="40" fill="#7acff5" stroke="#000000"
			 />
		<path
			d="M 897 147 L 1029.59 147" fill="none" stroke="#000000"
			stroke-miterlimit="10"  />
		<g fill="#000000"
			font-family="sans-serif" font-weight="bold" text-anchor="middle"
			font-size="12px">
			<text x="962.8" y="140.5">UrhInternalSender</text>
		</g>
		<rect x="897" y="63"
			width="132.59" height="40" fill="#7acff5" stroke="#000000"
			 />
		<path d="M 897 81 L 1029.59 81"
			fill="none" stroke="#000000" stroke-miterlimit="10"
			 />
		<g fill="#000000"
			font-family="sans-serif" font-weight="bold" text-anchor="middle"
			font-size="12px">
			<text x="962.8" y="74.5">UrhCliSender</text>
		</g>
		<path
			d="M 890.28 53.12 L 890.28 140" fill="none" stroke="#000000"
			stroke-miterlimit="10"  />
		<path
			d="M 890.28 41.12 L 896.28 53.12 L 884.28 53.12 Z" fill="none"
			stroke="#000000" stroke-miterlimit="10"  />
		<path
			d="M 692.57 20 L 817.63 20" fill="none" stroke="#000000"
			stroke-miterlimit="10"  />
		<path
			d="M 822.88 20 L 815.88 23.5 L 817.63 20 L 815.88 16.5 Z"
			fill="#000000" stroke="#000000" stroke-miterlimit="10"
			 />
		<path
			d="M 60.32 272 L 88.5 205.86" fill="none" stroke="#000000"
			stroke-miterlimit="10"  />
		<path
			d="M 90.56 201.03 L 91.04 208.84 L 88.5 205.86 L 84.6 206.1 Z"
			fill="#000000" stroke="#000000" stroke-miterlimit="10"
			 />
		<rect x="0" y="272" width="107"
			height="32" fill="none" stroke="none"  />
		<g fill="#000000"
			font-family="sans-serif" text-anchor="middle"
			font-size="20px">
			<text x="60" y="300">Browser</text>
		</g>
		<path
			d="M 182.77 272 L 159.15 206" fill="none" stroke="#000000"
			stroke-miterlimit="10"  />
		<path
			d="M 157.38 201.05 L 163.03 206.46 L 159.15 206 L 156.44 208.82 Z"
			fill="#000000" stroke="#0000" stroke-miterlimit="10"
			 />
		<rect x="164" y="272"
			width="60" height="32" fill="none" stroke="none"  />
		<g fill="#000000"
			font-family="sans-serif" text-anchor="middle"
			font-size="20px">
			<text x="185" y="300">REST</text>
		</g>
		<g fill="#000000"
			font-family="sans-serif" text-anchor="middle"
			font-size="12px">
			<text x="527.33" y="33.80">1..n</text>
		</g>
	</g>
</svg>